<svg width="113" height="22" viewBox="0 0 113 22" fill="none" xmlns="http://www.w3.org/2000/svg">
<path d="M9.872 21.12C7.968 21.12 6.312 20.776 4.904 20.088C3.496 19.384 2.416 18.392 1.664 17.112C0.912 15.832 0.536 14.344 0.536 12.648C0.536 10.296 0.976 8.208 1.856 6.384C2.752 4.56 3.96 3.152 5.48 2.16C7 1.152 8.688 0.647999 10.544 0.647999C12.272 0.647999 13.584 1.096 14.48 1.992C15.376 2.872 15.824 4.04 15.824 5.496C15.824 6.472 15.648 7.256 15.296 7.848C14.96 8.44 14.472 8.736 13.832 8.736C13.384 8.736 13.032 8.632 12.776 8.424C12.52 8.216 12.392 7.912 12.392 7.512C12.392 7.368 12.424 7.104 12.488 6.72C12.584 6.24 12.632 5.856 12.632 5.568C12.632 4.112 11.856 3.384 10.304 3.384C9.248 3.384 8.24 3.728 7.28 4.416C6.32 5.104 5.544 6.12 4.952 7.464C4.36 8.792 4.064 10.376 4.064 12.216C4.064 14.136 4.6 15.624 5.672 16.68C6.744 17.72 8.328 18.24 10.424 18.24C11.464 18.24 12.512 18.112 13.568 17.856C14.64 17.584 15.824 17.176 17.12 16.632C17.36 16.536 17.56 16.488 17.72 16.488C17.976 16.488 18.168 16.584 18.296 16.776C18.424 16.968 18.488 17.216 18.488 17.52C18.488 18.496 17.96 19.216 16.904 19.68C15.768 20.176 14.584 20.544 13.352 20.784C12.136 21.008 10.976 21.12 9.872 21.12ZM19.5571 21.12C18.5651 21.12 17.7731 20.76 17.1811 20.04C16.5891 19.32 16.2931 18.376 16.2931 17.208C16.2931 15.928 16.5891 14.72 17.1811 13.584C17.7731 12.432 18.5571 11.512 19.5331 10.824C20.5251 10.12 21.5731 9.768 22.6771 9.768C23.0291 9.768 23.2611 9.84 23.3731 9.984C23.5011 10.112 23.6051 10.352 23.6851 10.704C24.0211 10.64 24.3731 10.608 24.7411 10.608C25.5251 10.608 25.9171 10.888 25.9171 11.448C25.9171 11.784 25.7971 12.584 25.5571 13.848C25.1891 15.688 25.0051 16.968 25.0051 17.688C25.0051 17.928 25.0611 18.12 25.1731 18.264C25.3011 18.408 25.4611 18.48 25.6531 18.48C25.9571 18.48 26.3251 18.288 26.7571 17.904C27.1891 17.504 27.7731 16.864 28.5091 15.984C28.7011 15.76 28.9171 15.648 29.1571 15.648C29.3651 15.648 29.5251 15.744 29.6371 15.936C29.7651 16.128 29.8291 16.392 29.8291 16.728C29.8291 17.368 29.6771 17.864 29.3731 18.216C28.7171 19.032 28.0211 19.72 27.2851 20.28C26.5491 20.84 25.8371 21.12 25.1491 21.12C24.6211 21.12 24.1331 20.944 23.6851 20.592C23.2531 20.224 22.9251 19.728 22.7011 19.104C21.8691 20.448 20.8211 21.12 19.5571 21.12ZM20.4211 18.696C20.7731 18.696 21.1091 18.488 21.4291 18.072C21.7491 17.656 21.9811 17.104 22.1251 16.416L23.0131 12C22.3411 12.016 21.7171 12.272 21.1411 12.768C20.5811 13.248 20.1331 13.888 19.7971 14.688C19.4611 15.488 19.2931 16.336 19.2931 17.232C19.2931 17.728 19.3891 18.096 19.5811 18.336C19.7891 18.576 20.0691 18.696 20.4211 18.696ZM29.5826 21.12C28.9746 21.12 28.5426 20.8 28.2866 20.16C28.0466 19.52 27.9266 18.496 27.9266 17.088C27.9266 15.008 28.2226 13.032 28.8146 11.16C28.9586 10.696 29.1906 10.36 29.5106 10.152C29.8466 9.928 30.3106 9.816 30.9026 9.816C31.2226 9.816 31.4466 9.856 31.5746 9.936C31.7026 10.016 31.7666 10.168 31.7666 10.392C31.7666 10.648 31.6466 11.224 31.4066 12.12C31.2466 12.76 31.1186 13.32 31.0226 13.8C30.9266 14.28 30.8466 14.872 30.7826 15.576C31.3106 14.2 31.9026 13.08 32.5586 12.216C33.2146 11.352 33.8546 10.736 34.4786 10.368C35.1186 10 35.7026 9.816 36.2306 9.816C37.2706 9.816 37.7906 10.336 37.7906 11.376C37.7906 11.584 37.7186 12.088 37.5746 12.888C37.4466 13.528 37.3826 13.928 37.3826 14.088C37.3826 14.648 37.5826 14.928 37.9826 14.928C38.4306 14.928 39.0066 14.576 39.7106 13.872C39.9186 13.664 40.1346 13.56 40.3586 13.56C40.5666 13.56 40.7266 13.656 40.8386 13.848C40.9666 14.024 41.0306 14.264 41.0306 14.568C41.0306 15.16 40.8706 15.624 40.5506 15.96C40.1026 16.424 39.5746 16.824 38.9666 17.16C38.3746 17.48 37.7426 17.64 37.0706 17.64C36.2226 17.64 35.5746 17.424 35.1266 16.992C34.6946 16.56 34.4786 15.976 34.4786 15.24C34.4786 15 34.5026 14.76 34.5506 14.52C34.5826 14.2 34.5986 13.984 34.5986 13.872C34.5986 13.616 34.5106 13.488 34.3346 13.488C34.0946 13.488 33.7746 13.76 33.3746 14.304C32.9906 14.832 32.6066 15.536 32.2226 16.416C31.8386 17.296 31.5266 18.224 31.2866 19.2C31.1106 19.952 30.9026 20.464 30.6626 20.736C30.4386 20.992 30.0786 21.12 29.5826 21.12ZM49.5044 15.648C49.7124 15.648 49.8724 15.744 49.9844 15.936C50.1124 16.128 50.1764 16.392 50.1764 16.728C50.1764 17.368 50.0244 17.864 49.7204 18.216C49.1284 18.936 48.2884 19.6 47.2004 20.208C46.1284 20.816 44.9764 21.12 43.7444 21.12C42.0644 21.12 40.7604 20.664 39.8324 19.752C38.9044 18.84 38.4404 17.592 38.4404 16.008C38.4404 14.904 38.6724 13.88 39.1364 12.936C39.6004 11.976 40.2404 11.216 41.0564 10.656C41.8884 10.096 42.8244 9.816 43.8644 9.816C44.7924 9.816 45.5364 10.096 46.0964 10.656C46.6564 11.2 46.9364 11.944 46.9364 12.888C46.9364 13.992 46.5364 14.944 45.7364 15.744C44.9524 16.528 43.6164 17.152 41.7284 17.616C42.1284 18.352 42.8884 18.72 44.0084 18.72C44.7284 18.72 45.5444 18.472 46.4564 17.976C47.3844 17.464 48.1844 16.8 48.8564 15.984C49.0484 15.76 49.2644 15.648 49.5044 15.648ZM43.4564 12.168C42.8644 12.168 42.3604 12.512 41.9444 13.2C41.5444 13.888 41.3444 14.72 41.3444 15.696V15.744C42.2884 15.52 43.0324 15.184 43.5764 14.736C44.1204 14.288 44.3924 13.768 44.3924 13.176C44.3924 12.872 44.3044 12.632 44.1284 12.456C43.9684 12.264 43.7444 12.168 43.4564 12.168ZM58.9263 15.648C59.1343 15.648 59.2943 15.744 59.4063 15.936C59.5343 16.128 59.5983 16.392 59.5983 16.728C59.5983 17.368 59.4463 17.864 59.1423 18.216C58.5503 18.936 57.7103 19.6 56.6223 20.208C55.5503 20.816 54.3983 21.12 53.1663 21.12C51.4863 21.12 50.1823 20.664 49.2543 19.752C48.3263 18.84 47.8623 17.592 47.8623 16.008C47.8623 14.904 48.0943 13.88 48.5583 12.936C49.0223 11.976 49.6623 11.216 50.4783 10.656C51.3103 10.096 52.2463 9.816 53.2863 9.816C54.2143 9.816 54.9583 10.096 55.5183 10.656C56.0783 11.2 56.3583 11.944 56.3583 12.888C56.3583 13.992 55.9583 14.944 55.1583 15.744C54.3743 16.528 53.0383 17.152 51.1503 17.616C51.5503 18.352 52.3103 18.72 53.4303 18.72C54.1503 18.72 54.9663 18.472 55.8783 17.976C56.8063 17.464 57.6063 16.8 58.2783 15.984C58.4703 15.76 58.6863 15.648 58.9263 15.648ZM52.8783 12.168C52.2863 12.168 51.7823 12.512 51.3663 13.2C50.9663 13.888 50.7663 14.72 50.7663 15.696V15.744C51.7103 15.52 52.4543 15.184 52.9983 14.736C53.5423 14.288 53.8143 13.768 53.8143 13.176C53.8143 12.872 53.7263 12.632 53.5503 12.456C53.3903 12.264 53.1663 12.168 52.8783 12.168ZM67.3402 13.104C67.6922 13.104 67.9882 13.232 68.2282 13.488C68.4842 13.728 68.6122 14.032 68.6122 14.4C68.6122 14.608 68.5642 14.832 68.4682 15.072C68.2122 15.664 67.8522 16.16 67.3882 16.56C66.9242 16.96 66.4122 17.16 65.8522 17.16C65.4042 17.16 65.0202 17 64.7002 16.68C64.3962 16.36 64.2442 15.928 64.2442 15.384C64.2442 15.08 64.2602 14.752 64.2922 14.4C64.3242 14.144 64.3402 13.968 64.3402 13.872C64.3402 13.744 64.3082 13.648 64.2442 13.584C64.1962 13.52 64.1322 13.488 64.0522 13.488C63.8282 13.488 63.5242 13.76 63.1402 14.304C62.7562 14.832 62.3722 15.536 61.9882 16.416C61.6042 17.296 61.2922 18.224 61.0522 19.2C60.8762 19.968 60.6762 20.48 60.4522 20.736C60.2282 20.992 59.8602 21.12 59.3482 21.12C58.7402 21.12 58.3082 20.8 58.0522 20.16C57.8122 19.52 57.6922 18.496 57.6922 17.088C57.6922 15.008 57.9882 13.032 58.5802 11.16C58.7242 10.696 58.9562 10.36 59.2762 10.152C59.6122 9.928 60.0762 9.816 60.6682 9.816C60.9882 9.816 61.2122 9.856 61.3402 9.936C61.4682 10.016 61.5322 10.168 61.5322 10.392C61.5322 10.648 61.4122 11.224 61.1722 12.12C61.0122 12.76 60.8842 13.32 60.7882 13.8C60.6922 14.28 60.6122 14.872 60.5482 15.576C61.0762 14.2 61.6682 13.08 62.3242 12.216C62.9802 11.352 63.6202 10.736 64.2442 10.368C64.8682 10 65.4362 9.816 65.9482 9.816C66.4122 9.816 66.7642 9.952 67.0042 10.224C67.2602 10.48 67.3882 10.864 67.3882 11.376C67.3882 11.68 67.3002 12.256 67.1242 13.104H67.3402ZM71.7416 15.096C71.3576 15.128 71.0456 15.016 70.8056 14.76C70.5816 14.504 70.4696 14.144 70.4696 13.68C70.4696 13.248 70.5736 12.928 70.7816 12.72C71.0056 12.512 71.3256 12.392 71.7416 12.36L76.6616 11.88C77.0616 11.848 77.3656 11.952 77.5736 12.192C77.7976 12.416 77.9096 12.752 77.9096 13.2C77.9096 14.064 77.4936 14.536 76.6616 14.616L71.7416 15.096ZM100.069 1.104C100.517 1.168 100.821 1.304 100.981 1.512C101.157 1.72 101.245 1.992 101.245 2.328C101.245 3.432 100.653 3.944 99.4693 3.864L98.6293 3.792C97.6853 3.712 96.7413 3.648 95.7973 3.6C94.8693 3.552 93.8933 3.528 92.8693 3.528H91.7893C91.5973 5.896 91.3973 8.056 91.1893 10.008L95.3173 9.936C95.9093 9.936 96.3013 10.04 96.4933 10.248C96.7013 10.456 96.8053 10.736 96.8053 11.088C96.8053 11.632 96.6453 12.064 96.3253 12.384C96.0053 12.688 95.5493 12.84 94.9573 12.84H90.8533L90.7093 13.872C90.3733 16.512 89.6533 18.392 88.5493 19.512C87.4613 20.632 85.9573 21.192 84.0373 21.192C82.9493 21.192 81.9493 20.96 81.0373 20.496C80.1253 20.016 79.4533 19.44 79.0213 18.768C78.8453 18.496 78.7572 18.168 78.7572 17.784C78.7572 17.4 78.8453 17.064 79.0213 16.776C79.2133 16.488 79.4453 16.344 79.7173 16.344C79.9093 16.344 80.0933 16.408 80.2693 16.536C80.4613 16.664 80.7013 16.912 80.9893 17.28C81.7573 18.288 82.7093 18.792 83.8453 18.792C84.7573 18.792 85.5173 18.424 86.1253 17.688C86.7493 16.936 87.1493 15.76 87.3253 14.16L87.4693 12.84H86.3173C85.9493 12.84 85.6293 12.736 85.3573 12.528C85.1013 12.32 84.9733 12.024 84.9733 11.64C84.9733 11.144 85.1013 10.768 85.3573 10.512C85.6133 10.24 85.9893 10.104 86.4853 10.104C86.9333 10.104 87.3733 10.096 87.8053 10.08C87.9973 8.32 88.2053 6.184 88.4293 3.672C86.7013 3.832 85.4852 4.112 84.7812 4.512C84.0773 4.912 83.7253 5.504 83.7253 6.288C83.7253 6.832 83.8853 7.352 84.2053 7.848C84.3013 7.992 84.3493 8.136 84.3493 8.28C84.3493 8.568 84.1893 8.824 83.8693 9.048C83.5493 9.256 83.1893 9.36 82.7893 9.36C82.3573 9.36 81.9893 9.232 81.6853 8.976C81.4933 8.816 81.3093 8.488 81.1333 7.992C80.9573 7.496 80.8693 6.944 80.8693 6.336C80.8693 4.352 81.8853 2.912 83.9173 2.016C85.9653 1.12 88.9493 0.671999 92.8693 0.671999C95.5893 0.671999 97.9893 0.815999 100.069 1.104ZM100.163 8.232C99.4912 8.232 98.9872 8.08 98.6512 7.776C98.3152 7.456 98.1472 7.016 98.1472 6.456C98.1472 5.896 98.3632 5.432 98.7952 5.064C99.2432 4.68 99.7952 4.488 100.451 4.488C101.043 4.488 101.523 4.632 101.891 4.92C102.259 5.208 102.443 5.616 102.443 6.144C102.443 6.784 102.235 7.296 101.819 7.68C101.403 8.048 100.851 8.232 100.163 8.232ZM99.9712 21.12C98.9312 21.12 98.1712 20.752 97.6912 20.016C97.2272 19.28 96.9952 18.304 96.9952 17.088C96.9952 16.368 97.0832 15.448 97.2592 14.328C97.4512 13.192 97.6912 12.136 97.9792 11.16C98.1232 10.648 98.3152 10.296 98.5552 10.104C98.7952 9.912 99.1792 9.816 99.7072 9.816C100.523 9.816 100.931 10.088 100.931 10.632C100.931 11.032 100.779 11.96 100.475 13.416C100.091 15.176 99.8992 16.368 99.8992 16.992C99.8992 17.472 99.9632 17.84 100.091 18.096C100.219 18.352 100.435 18.48 100.739 18.48C101.027 18.48 101.387 18.28 101.819 17.88C102.251 17.48 102.827 16.848 103.547 15.984C103.739 15.76 103.955 15.648 104.195 15.648C104.403 15.648 104.563 15.744 104.675 15.936C104.803 16.128 104.867 16.392 104.867 16.728C104.867 17.368 104.715 17.864 104.411 18.216C102.827 20.152 101.347 21.12 99.9712 21.12ZM106.885 12.096C106.853 12.896 106.837 13.52 106.837 13.968C106.837 15.12 106.893 16.024 107.005 16.68C107.133 17.32 107.333 17.784 107.605 18.072C107.893 18.344 108.285 18.48 108.781 18.48C109.037 18.48 109.341 18.4 109.693 18.24C110.045 18.08 110.365 17.872 110.653 17.616C110.829 17.456 111.005 17.376 111.181 17.376C111.373 17.376 111.525 17.488 111.637 17.712C111.765 17.92 111.829 18.176 111.829 18.48C111.829 18.784 111.765 19.08 111.637 19.368C111.525 19.656 111.349 19.896 111.109 20.088C110.277 20.776 109.333 21.12 108.277 21.12C106.757 21.12 105.645 20.488 104.941 19.224C104.237 17.944 103.885 16.28 103.885 14.232C103.885 13.528 103.909 12.816 103.957 12.096H103.021C102.541 12.096 102.213 12.008 102.037 11.832C101.877 11.656 101.797 11.376 101.797 10.992C101.797 10.096 102.157 9.648 102.877 9.648H104.245C104.517 7.888 104.933 6.28 105.493 4.824C106.053 3.368 106.725 2.208 107.509 1.344C108.309 0.479999 109.165 0.0479994 110.077 0.0479994C110.749 0.0479994 111.277 0.343999 111.661 0.935999C112.045 1.528 112.237 2.272 112.237 3.168C112.237 5.648 111.197 7.808 109.117 9.648H111.805C112.061 9.648 112.245 9.704 112.357 9.816C112.469 9.928 112.525 10.136 112.525 10.44C112.525 11.544 111.621 12.096 109.813 12.096H106.885ZM109.429 2.352C109.189 2.352 108.917 2.656 108.613 3.264C108.325 3.856 108.045 4.688 107.773 5.76C107.517 6.816 107.301 7.992 107.125 9.288C108.069 8.472 108.773 7.56 109.237 6.552C109.717 5.528 109.957 4.6 109.957 3.768C109.957 2.824 109.781 2.352 109.429 2.352Z" fill="#2563EB"/>
</svg>
