<svg width="149" height="27" viewBox="0 0 149 27" fill="none" xmlns="http://www.w3.org/2000/svg">
<path d="M30.3597 19.4999C30.6197 19.4999 30.8197 19.6199 30.9597 19.8599C31.1197 20.0999 31.1997 20.4299 31.1997 20.8499C31.1997 21.6299 31.0097 22.2499 30.6297 22.7099C29.6697 23.8699 28.6997 24.7699 27.7197 25.4099C26.7397 26.0299 25.5797 26.3399 24.2397 26.3399C22.7597 26.3399 21.5497 25.9099 20.6097 25.0499C19.6697 24.1699 18.7897 22.8099 17.9697 20.9699C17.3697 19.6499 16.8697 18.6699 16.4697 18.0299C16.0897 17.3699 15.7097 16.9099 15.3297 16.6499C14.9497 16.3699 14.4697 16.1999 13.8897 16.1399L13.5597 18.3599C13.1397 21.2199 12.3197 23.2799 11.0997 24.5399C9.89973 25.7999 8.23973 26.4299 6.11973 26.4299C4.73973 26.4299 3.50973 26.0999 2.42973 25.4399C1.36973 24.7599 0.629727 23.8999 0.209727 22.8599C0.0697266 22.4999 -0.000273421 22.1099 -0.000273421 21.6899C-0.000273421 21.0899 0.139727 20.5699 0.419727 20.1299C0.699727 19.6899 1.05973 19.4699 1.49973 19.4699C1.75973 19.4699 1.97973 19.5399 2.15973 19.6799C2.33973 19.7999 2.50973 20.0199 2.66973 20.3399C3.28973 21.4999 3.82973 22.3099 4.28973 22.7699C4.76973 23.2299 5.35973 23.4599 6.05973 23.4599C6.85973 23.4599 7.53973 23.0999 8.09973 22.3799C8.67973 21.6399 9.08973 20.5099 9.32973 18.9899L9.74973 16.1399H9.26973C8.80973 16.1399 8.44973 16.0099 8.18973 15.7499C7.92973 15.4899 7.79973 15.1299 7.79973 14.6699C7.79973 14.1499 7.92973 13.7399 8.18973 13.4399C8.46973 13.1199 8.80973 12.9599 9.20973 12.9599H10.1997C10.3397 11.9799 10.4397 11.2999 10.4997 10.9199L11.4297 4.16994C10.9097 4.10994 10.4197 4.07994 9.95973 4.07994C8.25973 4.07994 6.96973 4.37994 6.08973 4.97994C5.20973 5.55994 4.76973 6.39994 4.76973 7.49994C4.76973 7.99994 4.81973 8.40994 4.91973 8.72994C5.03973 9.02994 5.18973 9.36994 5.36973 9.74994C5.44973 9.90994 5.48973 10.0899 5.48973 10.2899C5.48973 10.7299 5.27973 11.1199 4.85973 11.4599C4.45973 11.7799 4.00973 11.9399 3.50973 11.9399C2.86973 11.9399 2.39973 11.6599 2.09973 11.0999C1.49973 10.0399 1.19973 8.89994 1.19973 7.67994C1.19973 6.41994 1.53973 5.26994 2.21973 4.22994C2.91973 3.18994 3.96973 2.35994 5.36973 1.73994C6.76973 1.09994 8.49973 0.77994 10.5597 0.77994C11.4597 0.77994 12.2797 0.829939 13.0197 0.929939C13.7797 1.02994 14.6097 1.21994 15.5097 1.49994C16.4897 1.79994 16.9797 2.35994 16.9797 3.17994C16.9797 4.27994 16.5097 4.82994 15.5697 4.82994L14.3997 12.8999C16.7397 12.6599 18.6397 11.6599 20.0997 9.89994C21.5797 8.11994 22.8097 5.70994 23.7897 2.66994C23.9697 2.10994 24.2697 1.67994 24.6897 1.37994C25.1297 1.07994 25.6797 0.929939 26.3397 0.929939C26.8997 0.929939 27.3297 1.05994 27.6297 1.31994C27.9497 1.55994 28.1097 1.90994 28.1097 2.36994C28.1097 2.50994 28.0697 2.73994 27.9897 3.05994C26.9897 6.35994 25.5597 8.97994 23.6997 10.9199C21.8397 12.8599 19.8097 14.1499 17.6097 14.7899C18.3697 14.9699 18.9897 15.2399 19.4697 15.5999C19.9697 15.9599 20.3897 16.4099 20.7297 16.9499C21.0697 17.4699 21.4597 18.1999 21.8997 19.1399C22.5197 20.4599 23.0997 21.3999 23.6397 21.9599C24.1797 22.4999 24.8097 22.7699 25.5297 22.7699C26.1697 22.7699 26.7797 22.5599 27.3597 22.1399C27.9397 21.6999 28.6697 20.9599 29.5497 19.9199C29.7897 19.6399 30.0597 19.4999 30.3597 19.4999ZM31.8595 26.3399C30.6195 26.3399 29.6295 25.8899 28.8895 24.9899C28.1495 24.0899 27.7795 22.9099 27.7795 21.4499C27.7795 19.8499 28.1495 18.3399 28.8895 16.9199C29.6295 15.4799 30.6095 14.3299 31.8295 13.4699C33.0695 12.5899 34.3795 12.1499 35.7595 12.1499C36.1995 12.1499 36.4895 12.2399 36.6295 12.4199C36.7895 12.5799 36.9195 12.8799 37.0195 13.3199C37.4395 13.2399 37.8795 13.1999 38.3395 13.1999C39.3195 13.1999 39.8095 13.5499 39.8095 14.2499C39.8095 14.6699 39.6595 15.6699 39.3595 17.2499C38.8995 19.5499 38.6695 21.1499 38.6695 22.0499C38.6695 22.3499 38.7395 22.5899 38.8795 22.7699C39.0395 22.9499 39.2395 23.0399 39.4795 23.0399C39.8595 23.0399 40.3195 22.7999 40.8595 22.3199C41.3995 21.8199 42.1295 21.0199 43.0495 19.9199C43.2895 19.6399 43.5595 19.4999 43.8595 19.4999C44.1195 19.4999 44.3195 19.6199 44.4595 19.8599C44.6195 20.0999 44.6995 20.4299 44.6995 20.8499C44.6995 21.6499 44.5095 22.2699 44.1295 22.7099C43.3095 23.7299 42.4395 24.5899 41.5195 25.2899C40.5995 25.9899 39.7095 26.3399 38.8495 26.3399C38.1895 26.3399 37.5795 26.1199 37.0195 25.6799C36.4795 25.2199 36.0695 24.5999 35.7895 23.8199C34.7495 25.4999 33.4395 26.3399 31.8595 26.3399ZM32.9395 23.3099C33.3795 23.3099 33.7995 23.0499 34.1995 22.5299C34.5995 22.0099 34.8895 21.3199 35.0695 20.4599L36.1795 14.9399C35.3395 14.9599 34.5595 15.2799 33.8395 15.8999C33.1395 16.4999 32.5795 17.2999 32.1595 18.2999C31.7395 19.2999 31.5295 20.3599 31.5295 21.4799C31.5295 22.0999 31.6495 22.5599 31.8895 22.8599C32.1495 23.1599 32.4995 23.3099 32.9395 23.3099ZM44.3913 26.3399C43.6313 26.3399 43.0913 25.9399 42.7713 25.1399C42.4713 24.3399 42.3213 23.0599 42.3213 21.2999C42.3213 18.6999 42.6913 16.2299 43.4313 13.8899C43.6113 13.3099 43.9013 12.8899 44.3013 12.6299C44.7213 12.3499 45.3013 12.2099 46.0413 12.2099C46.4413 12.2099 46.7213 12.2599 46.8813 12.3599C47.0413 12.4599 47.1213 12.6499 47.1213 12.9299C47.1213 13.2499 46.9713 13.9699 46.6713 15.0899C46.4713 15.8899 46.3113 16.5899 46.1913 17.1899C46.0713 17.7899 45.9713 18.5299 45.8913 19.4099C46.5513 17.6899 47.2913 16.2899 48.1113 15.2099C48.9313 14.1299 49.7313 13.3599 50.5113 12.8999C51.3113 12.4399 52.0413 12.2099 52.7013 12.2099C54.0013 12.2099 54.6513 12.8599 54.6513 14.1599C54.6513 14.4199 54.5613 15.0499 54.3813 16.0499C54.2213 16.8499 54.1413 17.3499 54.1413 17.5499C54.1413 18.2499 54.3913 18.5999 54.8913 18.5999C55.4513 18.5999 56.1713 18.1599 57.0513 17.2799C57.3113 17.0199 57.5813 16.8899 57.8613 16.8899C58.1213 16.8899 58.3213 17.0099 58.4613 17.2499C58.6213 17.4699 58.7013 17.7699 58.7013 18.1499C58.7013 18.8899 58.5013 19.4699 58.1013 19.8899C57.5413 20.4699 56.8813 20.9699 56.1213 21.3899C55.3813 21.7899 54.5913 21.9899 53.7513 21.9899C52.6913 21.9899 51.8813 21.7199 51.3213 21.1799C50.7813 20.6399 50.5113 19.9099 50.5113 18.9899C50.5113 18.6899 50.5413 18.3899 50.6013 18.0899C50.6413 17.6899 50.6613 17.4199 50.6613 17.2799C50.6613 16.9599 50.5513 16.7999 50.3313 16.7999C50.0313 16.7999 49.6313 17.1399 49.1313 17.8199C48.6513 18.4799 48.1713 19.3599 47.6913 20.4599C47.2113 21.5599 46.8213 22.7199 46.5213 23.9399C46.3013 24.8799 46.0413 25.5199 45.7413 25.8599C45.4613 26.1799 45.0113 26.3399 44.3913 26.3399ZM69.2936 19.4999C69.5536 19.4999 69.7536 19.6199 69.8936 19.8599C70.0536 20.0999 70.1336 20.4299 70.1336 20.8499C70.1336 21.6499 69.9436 22.2699 69.5636 22.7099C68.8236 23.6099 67.7736 24.4399 66.4136 25.1999C65.0736 25.9599 63.6336 26.3399 62.0936 26.3399C59.9936 26.3399 58.3636 25.7699 57.2036 24.6299C56.0436 23.4899 55.4636 21.9299 55.4636 19.9499C55.4636 18.5699 55.7536 17.2899 56.3336 16.1099C56.9136 14.9099 57.7136 13.9599 58.7336 13.2599C59.7736 12.5599 60.9436 12.2099 62.2436 12.2099C63.4036 12.2099 64.3336 12.5599 65.0336 13.2599C65.7336 13.9399 66.0836 14.8699 66.0836 16.0499C66.0836 17.4299 65.5836 18.6199 64.5836 19.6199C63.6036 20.5999 61.9336 21.3799 59.5736 21.9599C60.0736 22.8799 61.0236 23.3399 62.4236 23.3399C63.3236 23.3399 64.3436 23.0299 65.4836 22.4099C66.6436 21.7699 67.6436 20.9399 68.4836 19.9199C68.7236 19.6399 68.9936 19.4999 69.2936 19.4999ZM61.7336 15.1499C60.9936 15.1499 60.3636 15.5799 59.8436 16.4399C59.3436 17.2999 59.0936 18.3399 59.0936 19.5599V19.6199C60.2736 19.3399 61.2036 18.9199 61.8836 18.3599C62.5636 17.7999 62.9036 17.1499 62.9036 16.4099C62.9036 16.0299 62.7936 15.7299 62.5736 15.5099C62.3736 15.2699 62.0936 15.1499 61.7336 15.1499ZM81.071 19.4999C81.331 19.4999 81.531 19.6199 81.671 19.8599C81.831 20.0999 81.911 20.4299 81.911 20.8499C81.911 21.6499 81.721 22.2699 81.341 22.7099C80.601 23.6099 79.551 24.4399 78.191 25.1999C76.851 25.9599 75.411 26.3399 73.871 26.3399C71.771 26.3399 70.141 25.7699 68.981 24.6299C67.821 23.4899 67.241 21.9299 67.241 19.9499C67.241 18.5699 67.531 17.2899 68.111 16.1099C68.691 14.9099 69.491 13.9599 70.511 13.2599C71.551 12.5599 72.721 12.2099 74.021 12.2099C75.181 12.2099 76.111 12.5599 76.811 13.2599C77.511 13.9399 77.861 14.8699 77.861 16.0499C77.861 17.4299 77.361 18.6199 76.361 19.6199C75.381 20.5999 73.711 21.3799 71.351 21.9599C71.851 22.8799 72.801 23.3399 74.201 23.3399C75.101 23.3399 76.121 23.0299 77.261 22.4099C78.421 21.7699 79.421 20.9399 80.261 19.9199C80.501 19.6399 80.771 19.4999 81.071 19.4999ZM73.511 15.1499C72.771 15.1499 72.141 15.5799 71.621 16.4399C71.121 17.2999 70.871 18.3399 70.871 19.5599V19.6199C72.051 19.3399 72.981 18.9199 73.661 18.3599C74.341 17.7999 74.681 17.1499 74.681 16.4099C74.681 16.0299 74.571 15.7299 74.351 15.5099C74.151 15.2699 73.871 15.1499 73.511 15.1499ZM91.5883 16.3199C92.0283 16.3199 92.3983 16.4799 92.6983 16.7999C93.0183 17.0999 93.1783 17.4799 93.1783 17.9399C93.1783 18.1999 93.1183 18.4799 92.9983 18.7799C92.6783 19.5199 92.2283 20.1399 91.6483 20.6399C91.0683 21.1399 90.4283 21.3899 89.7283 21.3899C89.1683 21.3899 88.6883 21.1899 88.2883 20.7899C87.9083 20.3899 87.7183 19.8499 87.7183 19.1699C87.7183 18.7899 87.7383 18.3799 87.7783 17.9399C87.8183 17.6199 87.8383 17.3999 87.8383 17.2799C87.8383 17.1199 87.7983 16.9999 87.7183 16.9199C87.6583 16.8399 87.5783 16.7999 87.4783 16.7999C87.1983 16.7999 86.8183 17.1399 86.3383 17.8199C85.8583 18.4799 85.3783 19.3599 84.8983 20.4599C84.4183 21.5599 84.0283 22.7199 83.7283 23.9399C83.5083 24.8999 83.2583 25.5399 82.9783 25.8599C82.6983 26.1799 82.2383 26.3399 81.5983 26.3399C80.8383 26.3399 80.2983 25.9399 79.9783 25.1399C79.6783 24.3399 79.5283 23.0599 79.5283 21.2999C79.5283 18.6999 79.8983 16.2299 80.6383 13.8899C80.8183 13.3099 81.1083 12.8899 81.5083 12.6299C81.9283 12.3499 82.5083 12.2099 83.2483 12.2099C83.6483 12.2099 83.9283 12.2599 84.0883 12.3599C84.2483 12.4599 84.3283 12.6499 84.3283 12.9299C84.3283 13.2499 84.1783 13.9699 83.8783 15.0899C83.6783 15.8899 83.5183 16.5899 83.3983 17.1899C83.2783 17.7899 83.1783 18.5299 83.0983 19.4099C83.7583 17.6899 84.4983 16.2899 85.3183 15.2099C86.1383 14.1299 86.9383 13.3599 87.7183 12.8999C88.4983 12.4399 89.2083 12.2099 89.8483 12.2099C90.4283 12.2099 90.8683 12.3799 91.1683 12.7199C91.4883 13.0399 91.6483 13.5199 91.6483 14.1599C91.6483 14.5399 91.5383 15.2599 91.3183 16.3199H91.5883ZM97.09 18.8099C96.61 18.8499 96.22 18.7099 95.92 18.3899C95.64 18.0699 95.5 17.6199 95.5 17.0399C95.5 16.4999 95.63 16.0999 95.89 15.8399C96.17 15.5799 96.57 15.4299 97.09 15.3899L103.24 14.7899C103.74 14.7499 104.12 14.8799 104.38 15.1799C104.66 15.4599 104.8 15.8799 104.8 16.4399C104.8 17.5199 104.28 18.1099 103.24 18.2099L97.09 18.8099ZM132.5 1.31994C133.06 1.39994 133.44 1.56994 133.64 1.82994C133.86 2.08994 133.97 2.42994 133.97 2.84994C133.97 4.22994 133.23 4.86994 131.75 4.76994L130.7 4.67994C129.52 4.57994 128.34 4.49994 127.16 4.43994C126 4.37994 124.78 4.34994 123.5 4.34994H122.15C121.91 7.30994 121.66 10.0099 121.4 12.4499L126.56 12.3599C127.3 12.3599 127.79 12.4899 128.03 12.7499C128.29 13.0099 128.42 13.3599 128.42 13.7999C128.42 14.4799 128.22 15.0199 127.82 15.4199C127.42 15.7999 126.85 15.9899 126.11 15.9899H120.98L120.8 17.2799C120.38 20.5799 119.48 22.9299 118.1 24.3299C116.74 25.7299 114.86 26.4299 112.46 26.4299C111.1 26.4299 109.85 26.1399 108.71 25.5599C107.57 24.9599 106.73 24.2399 106.19 23.3999C105.97 23.0599 105.86 22.6499 105.86 22.1699C105.86 21.6899 105.97 21.2699 106.19 20.9099C106.43 20.5499 106.72 20.3699 107.06 20.3699C107.3 20.3699 107.53 20.4499 107.75 20.6099C107.99 20.7699 108.29 21.0799 108.65 21.5399C109.61 22.7999 110.8 23.4299 112.22 23.4299C113.36 23.4299 114.31 22.9699 115.07 22.0499C115.85 21.1099 116.35 19.6399 116.57 17.6399L116.75 15.9899H115.31C114.85 15.9899 114.45 15.8599 114.11 15.5999C113.79 15.3399 113.63 14.9699 113.63 14.4899C113.63 13.8699 113.79 13.3999 114.11 13.0799C114.43 12.7399 114.9 12.5699 115.52 12.5699C116.08 12.5699 116.63 12.5599 117.17 12.5399C117.41 10.3399 117.67 7.66994 117.95 4.52994C115.79 4.72994 114.27 5.07994 113.39 5.57994C112.51 6.07994 112.07 6.81994 112.07 7.79994C112.07 8.47994 112.27 9.12994 112.67 9.74994C112.79 9.92994 112.85 10.1099 112.85 10.2899C112.85 10.6499 112.65 10.9699 112.25 11.2499C111.85 11.5099 111.4 11.6399 110.9 11.6399C110.36 11.6399 109.9 11.4799 109.52 11.1599C109.28 10.9599 109.05 10.5499 108.83 9.92994C108.61 9.30994 108.5 8.61994 108.5 7.85994C108.5 5.37994 109.77 3.57994 112.31 2.45994C114.87 1.33994 118.6 0.77994 123.5 0.77994C126.9 0.77994 129.9 0.95994 132.5 1.31994ZM132.617 10.2299C131.777 10.2299 131.147 10.0399 130.727 9.65994C130.307 9.25994 130.097 8.70994 130.097 8.00994C130.097 7.30994 130.367 6.72994 130.907 6.26994C131.467 5.78994 132.157 5.54994 132.977 5.54994C133.717 5.54994 134.317 5.72994 134.777 6.08994C135.237 6.44994 135.467 6.95994 135.467 7.61994C135.467 8.41994 135.207 9.05994 134.687 9.53994C134.167 9.99994 133.477 10.2299 132.617 10.2299ZM132.377 26.3399C131.077 26.3399 130.127 25.8799 129.527 24.9599C128.947 24.0399 128.657 22.8199 128.657 21.2999C128.657 20.3999 128.767 19.2499 128.987 17.8499C129.227 16.4299 129.527 15.1099 129.887 13.8899C130.067 13.2499 130.307 12.8099 130.607 12.5699C130.907 12.3299 131.387 12.2099 132.047 12.2099C133.067 12.2099 133.577 12.5499 133.577 13.2299C133.577 13.7299 133.387 14.8899 133.007 16.7099C132.527 18.9099 132.287 20.3999 132.287 21.1799C132.287 21.7799 132.367 22.2399 132.527 22.5599C132.687 22.8799 132.957 23.0399 133.337 23.0399C133.697 23.0399 134.147 22.7899 134.687 22.2899C135.227 21.7899 135.947 20.9999 136.847 19.9199C137.087 19.6399 137.357 19.4999 137.657 19.4999C137.917 19.4999 138.117 19.6199 138.257 19.8599C138.417 20.0999 138.497 20.4299 138.497 20.8499C138.497 21.6499 138.307 22.2699 137.927 22.7099C135.947 25.1299 134.097 26.3399 132.377 26.3399ZM141.02 15.0599C140.98 16.0599 140.96 16.8399 140.96 17.3999C140.96 18.8399 141.03 19.9699 141.17 20.7899C141.33 21.5899 141.58 22.1699 141.92 22.5299C142.28 22.8699 142.77 23.0399 143.39 23.0399C143.71 23.0399 144.09 22.9399 144.53 22.7399C144.97 22.5399 145.37 22.2799 145.73 21.9599C145.95 21.7599 146.17 21.6599 146.39 21.6599C146.63 21.6599 146.82 21.7999 146.96 22.0799C147.12 22.3399 147.2 22.6599 147.2 23.0399C147.2 23.4199 147.12 23.7899 146.96 24.1499C146.82 24.5099 146.6 24.8099 146.3 25.0499C145.26 25.9099 144.08 26.3399 142.76 26.3399C140.86 26.3399 139.47 25.5499 138.59 23.9699C137.71 22.3699 137.27 20.2899 137.27 17.7299C137.27 16.8499 137.3 15.9599 137.36 15.0599H136.19C135.59 15.0599 135.18 14.9499 134.96 14.7299C134.76 14.5099 134.66 14.1599 134.66 13.6799C134.66 12.5599 135.11 11.9999 136.01 11.9999H137.72C138.06 9.79994 138.58 7.78994 139.28 5.96994C139.98 4.14994 140.82 2.69994 141.8 1.61994C142.8 0.53994 143.87 -5.93662e-05 145.01 -5.93662e-05C145.85 -5.93662e-05 146.51 0.369941 146.99 1.10994C147.47 1.84994 147.71 2.77994 147.71 3.89994C147.71 6.99994 146.41 9.69994 143.81 11.9999H147.17C147.49 11.9999 147.72 12.0699 147.86 12.2099C148 12.3499 148.07 12.6099 148.07 12.9899C148.07 14.3699 146.94 15.0599 144.68 15.0599H141.02ZM144.2 2.87994C143.9 2.87994 143.56 3.25994 143.18 4.01994C142.82 4.75994 142.47 5.79994 142.13 7.13994C141.81 8.45994 141.54 9.92994 141.32 11.5499C142.5 10.5299 143.38 9.38994 143.96 8.12994C144.56 6.84994 144.86 5.68994 144.86 4.64994C144.86 3.46994 144.64 2.87994 144.2 2.87994Z" fill="#2563EB"/>
</svg>
